<?xml version="1.0" standalone="no"?>
<!DOCTYPE svg PUBLIC "-//W3C//DTD SVG 20010904//EN"
 "http://www.w3.org/TR/2001/REC-SVG-20010904/DTD/svg10.dtd">
<svg version="1.0" xmlns="http://www.w3.org/2000/svg"
 width="276.000000pt" height="89.000000pt" viewBox="0 0 276.000000 89.000000"
 preserveAspectRatio="xMidYMid meet">
<metadata>
Created by potrace 1.10, written by Peter Selinger 2001-2011
</metadata>
<g transform="translate(0.000000,89.000000) scale(0.100000,-0.100000)"
fill="#000000" stroke="none">
<path d="M510 801 l-35 -16 -3 -223 -2 -222 39 0 c39 0 39 0 46 47 15 104 69
174 157 204 l53 18 3 -85 c3 -77 -3 -118 -23 -166 -6 -16 -1 -18 49 -18 l56 0
0 186 c0 173 -1 186 -17 179 -10 -4 -48 -14 -85 -21 -79 -16 -140 -44 -171
-80 l-22 -26 -5 120 -5 120 -35 -17z m300 -178 c0 -25 0 -26 -20 -8 -11 10
-20 22 -20 27 0 4 9 8 20 8 15 0 20 -7 20 -27z m-269 -49 c7 -8 21 -13 31 -11
20 6 24 -3 7 -20 -6 -6 -24 -37 -40 -70 l-28 -58 -1 88 c0 87 6 101 31 71z"/>
<path d="M810 803 c-29 -15 -35 -24 -38 -55 -4 -45 13 -50 53 -15 21 17 26 30
23 55 l-3 32 -35 -17z"/>
<path d="M1005 686 c-65 -30 -95 -85 -95 -173 0 -72 33 -133 87 -158 46 -22
129 -23 171 -1 28 15 82 79 82 98 0 5 -16 8 -36 8 -26 0 -46 -8 -71 -30 -54
-48 -113 -37 -139 25 -8 19 -14 37 -14 39 0 3 57 7 128 8 125 3 127 3 130 27
6 39 -27 109 -65 138 -42 32 -130 42 -178 19z m129 -77 c44 -52 37 -59 -58
-59 l-85 0 11 30 c22 65 90 80 132 29z m-157 -75 c3 -8 -1 -22 -10 -31 -13
-14 -16 -13 -22 6 -11 35 19 59 32 25z"/>
<path d="M1355 683 c-16 -9 -33 -21 -37 -27 -4 -6 -8 -80 -8 -163 l0 -153 45
0 45 0 0 120 c0 115 1 122 25 145 29 30 55 32 86 6 22 -18 24 -28 27 -133 2
-62 8 -119 14 -125 6 -7 23 -13 39 -13 l29 0 0 146 0 146 -34 34 c-28 28 -41
34 -77 34 -46 0 -108 -30 -110 -52 -1 -7 -4 1 -8 19 l-6 31 -30 -15z m20 -83
c-5 -15 -10 -19 -17 -12 -5 5 -7 20 -3 32 5 15 10 19 17 12 5 -5 7 -20 3 -32z"/>
<path d="M1814 668 l-37 -33 5 28 c3 15 2 27 -2 27 -15 0 -70 -22 -70 -28 0
-4 -2 -78 -3 -165 l-2 -157 43 0 42 0 0 110 c0 60 5 120 11 134 15 33 60 52
88 37 34 -19 41 -45 41 -153 0 -116 6 -128 58 -128 31 0 34 2 28 23 -3 12 -6
78 -6 146 l0 123 -34 34 c-29 29 -41 34 -80 34 -37 0 -52 -6 -82 -32z m-41
-55 c-11 -31 -15 -35 -23 -22 -11 16 -1 39 16 39 8 0 11 -6 7 -17z"/>
<path d="M2153 680 c-32 -19 -63 -66 -63 -95 0 -27 52 -18 80 14 14 17 36 33
50 36 35 8 80 -27 80 -63 0 -26 -1 -27 -51 -23 -60 4 -132 -20 -154 -52 -26
-37 -19 -94 14 -128 30 -29 36 -31 104 -31 40 0 87 24 87 45 0 6 6 1 13 -13 8
-16 23 -26 40 -28 l27 -3 0 131 c0 99 -4 138 -15 161 -23 44 -71 69 -130 69
-32 0 -62 -7 -82 -20z m147 -208 c0 -15 -7 -37 -15 -49 -36 -51 -130 -32 -123
25 4 33 38 52 96 52 39 0 42 -2 42 -28z"/>
<path d="M470 191 l0 -51 35 0 c33 0 41 8 35 35 -1 6 -3 21 -4 35 -1 21 -7 26
-33 28 l-33 3 0 -50z m55 -26 c0 -5 -10 -11 -22 -13 -16 -2 -23 2 -23 13 0 11
7 15 23 13 12 -2 22 -7 22 -13z"/>
<path d="M690 200 c11 -23 18 -45 15 -50 -3 -6 1 -10 10 -10 9 0 13 4 10 10
-3 5 4 27 15 50 11 22 16 40 10 40 -6 0 -16 -12 -22 -26 l-12 -25 -13 25 c-8
14 -18 26 -24 26 -5 0 0 -18 11 -40z"/>
<path d="M1050 190 c0 -27 5 -50 10 -50 6 0 10 9 10 19 0 12 8 21 23 24 l22 4
-22 2 c-32 2 -30 31 2 31 14 0 25 5 25 10 0 6 -16 10 -35 10 l-35 0 0 -50z"/>
<path d="M1257 193 c-9 -25 -14 -49 -11 -52 4 -3 9 0 11 7 5 14 43 16 43 2 0
-5 6 -10 14 -10 11 0 10 10 -7 50 -11 28 -24 50 -27 50 -3 0 -13 -21 -23 -47z"/>
<path d="M1440 230 c0 -5 7 -10 15 -10 11 0 15 -11 15 -40 0 -22 5 -40 10 -40
6 0 10 18 10 40 0 29 4 40 15 40 8 0 15 5 15 10 0 6 -18 10 -40 10 -22 0 -40
-4 -40 -10z"/>
<path d="M1661 240 c-9 -21 -4 -100 6 -100 6 0 9 9 6 20 -4 16 0 20 21 20 19
0 26 -5 26 -20 0 -11 5 -20 10 -20 6 0 10 23 10 50 0 28 -4 50 -10 50 -5 0
-10 -9 -10 -20 0 -30 -47 -28 -53 3 -2 12 -5 20 -6 17z"/>
<path d="M1885 190 c0 -27 5 -50 10 -50 12 0 11 93 -1 97 -5 2 -9 -19 -9 -47z"/>
<path d="M2050 193 c0 -29 5 -53 10 -53 6 0 10 12 10 27 l0 27 16 -23 16 -23
19 29 19 28 0 -32 c0 -18 3 -33 8 -33 4 0 7 23 7 50 0 28 -2 50 -5 50 -3 0
-14 -14 -24 -32 l-19 -31 -28 34 -28 34 -1 -52z"/>
<path d="M2313 190 c-12 -27 -17 -50 -13 -50 5 0 12 5 15 10 9 14 42 12 48 -2
2 -7 7 -11 10 -8 7 6 -25 100 -33 100 -4 0 -16 -22 -27 -50z"/>
</g>
</svg>
